<svg width="28" height="28" viewBox="0 0 28 28" fill="none" xmlns="http://www.w3.org/2000/svg">
<path fill-rule="evenodd" clip-rule="evenodd" d="M12.0406 2.71557e-08C10.1205 0.000163613 8.2282 0.459516 6.52167 1.33973C4.81515 2.21995 3.34386 3.49551 2.23056 5.05998C1.11726 6.62446 0.39424 8.43249 0.121812 10.3332C-0.150615 12.234 0.0354539 14.1723 0.664495 15.9865C1.29354 17.8007 2.34731 19.4382 3.7379 20.7623C5.12848 22.0864 6.81556 23.0588 8.65837 23.5983C10.5012 24.1378 12.4463 24.2288 14.3314 23.8636C16.2165 23.4985 17.987 22.6879 19.4951 21.4993L24.6688 26.673C24.936 26.9311 25.2938 27.0738 25.6653 27.0706C26.0367 27.0674 26.3921 26.9184 26.6547 26.6557C26.9174 26.3931 27.0664 26.0378 27.0696 25.6663C27.0728 25.2949 26.93 24.937 26.672 24.6698L21.4983 19.4962C22.898 17.7205 23.7695 15.5867 24.013 13.3389C24.2566 11.0912 23.8624 8.8202 22.8756 6.78597C21.8888 4.75174 20.3492 3.03642 18.4331 1.83633C16.5169 0.636234 14.3016 -0.000151786 12.0406 2.71557e-08ZM2.83231 12.0417C2.83231 9.59947 3.80247 7.25729 5.52937 5.53039C7.25627 3.80349 9.59844 2.83333 12.0406 2.83333C14.4828 2.83333 16.825 3.80349 18.5519 5.53039C20.2788 7.25729 21.249 9.59947 21.249 12.0417C21.249 14.4839 20.2788 16.826 18.5519 18.5529C16.825 20.2798 14.4828 21.25 12.0406 21.25C9.59844 21.25 7.25627 20.2798 5.52937 18.5529C3.80247 16.826 2.83231 14.4839 2.83231 12.0417Z" fill="black"/>
</svg>
