<svg width="21" height="20" viewBox="0 0 21 20" fill="none" xmlns="http://www.w3.org/2000/svg">
<path d="M10.4743 19.1667C9.04278 19.1667 7.68985 18.9259 6.41549 18.4443C5.14112 17.9628 4.0284 17.3058 3.07734 16.4735C2.12628 15.6412 1.37562 14.6674 0.825372 13.5521C0.275124 12.4368 0 11.2528 0 10C0 8.73194 0.275124 7.54425 0.825372 6.43692C1.37562 5.32958 2.12628 4.35944 3.07734 3.5265C4.0284 2.69355 5.14112 2.03661 6.41549 1.55567C7.68985 1.07472 9.04278 0.833943 10.4743 0.833332C11.9232 0.833332 13.2807 1.07411 14.5467 1.55567C15.8126 2.03722 16.9208 2.69417 17.8712 3.5265C18.8216 4.35883 19.5722 5.32897 20.1232 6.43692C20.6741 7.54486 20.9492 8.73255 20.9485 10C20.9485 11.2528 20.6734 12.4368 20.1232 13.5521C19.5729 14.6674 18.8223 15.6415 17.8712 16.4744C16.9201 17.3074 15.8116 17.9643 14.5456 18.4452C13.2796 18.9262 11.9225 19.1667 10.4743 19.1667ZM10.4743 17.2875C10.9281 16.7375 11.3209 16.1646 11.6526 15.5687C11.9843 14.9729 12.2549 14.3389 12.4644 13.6667H8.48415C8.69364 14.3389 8.96422 14.9729 9.29591 15.5687C9.62759 16.1646 10.0204 16.7375 10.4743 17.2875ZM7.75095 16.9208C7.43673 16.4167 7.16195 15.8932 6.92663 15.3506C6.69131 14.8079 6.49474 14.2466 6.33693 13.6667H3.24702C3.75328 14.4306 4.38627 15.0951 5.14601 15.6604C5.90574 16.2257 6.77405 16.6458 7.75095 16.9208ZM13.1976 16.9208C14.1752 16.6458 15.0438 16.2257 15.8036 15.6604C16.5633 15.0951 17.1959 14.4306 17.7015 13.6667H14.6116C14.4545 14.2472 14.2583 14.8088 14.0229 15.3515C13.7876 15.8942 13.5125 16.4173 13.1976 16.9208ZM2.35671 11.8333H5.91796C5.86559 11.5278 5.82648 11.2262 5.80065 10.9286C5.77481 10.631 5.76154 10.3214 5.76084 10C5.76015 9.67855 5.77341 9.36933 5.80065 9.07233C5.82788 8.77533 5.86698 8.47344 5.91796 8.16667H2.35671C2.26942 8.47222 2.20413 8.77411 2.16084 9.07233C2.11755 9.37055 2.09555 9.67978 2.09485 10C2.09415 10.3202 2.11615 10.6297 2.16084 10.9286C2.20553 11.2274 2.27082 11.529 2.35671 11.8333ZM8.01281 11.8333H12.9357C12.9881 11.5278 13.0275 11.2262 13.0541 10.9286C13.0806 10.631 13.0935 10.3214 13.0928 10C13.0921 9.67855 13.0789 9.36933 13.053 9.07233C13.0272 8.77533 12.9881 8.47344 12.9357 8.16667H8.01281C7.96044 8.47222 7.92134 8.77411 7.8955 9.07233C7.86966 9.37055 7.85639 9.67978 7.8557 10C7.855 10.3202 7.86827 10.6297 7.8955 10.9286C7.92273 11.2274 7.96184 11.529 8.01281 11.8333ZM15.0306 11.8333H18.5918C18.6791 11.5278 18.7447 11.2262 18.7887 10.9286C18.8327 10.631 18.8544 10.3214 18.8537 10C18.853 9.67855 18.8313 9.36933 18.7887 9.07233C18.7461 8.77533 18.6805 8.47344 18.5918 8.16667H15.0306C15.0829 8.47222 15.1224 8.77411 15.1489 9.07233C15.1755 9.37055 15.1884 9.67978 15.1877 10C15.187 10.3202 15.1737 10.6297 15.1479 10.9286C15.122 11.2274 15.0829 11.529 15.0306 11.8333ZM14.6116 6.33333H17.7015C17.1952 5.56944 16.5626 4.90486 15.8036 4.33958C15.0445 3.7743 14.1759 3.35417 13.1976 3.07917C13.5118 3.58333 13.7869 4.10675 14.0229 4.64942C14.259 5.19208 14.4552 5.75339 14.6116 6.33333ZM8.48415 6.33333H12.4644C12.2549 5.66111 11.9843 5.02708 11.6526 4.43125C11.3209 3.83542 10.9281 3.2625 10.4743 2.7125C10.0204 3.2625 9.62759 3.83542 9.29591 4.43125C8.96422 5.02708 8.69364 5.66111 8.48415 6.33333ZM3.24702 6.33333H6.33693C6.49404 5.75278 6.69061 5.19117 6.92663 4.6485C7.16265 4.10583 7.43742 3.58272 7.75095 3.07917C6.77336 3.35417 5.90469 3.7743 5.14496 4.33958C4.38522 4.90486 3.75258 5.56944 3.24702 6.33333Z" fill="white"/>
</svg>
