<svg width="88" height="65" viewBox="0 0 88 65" fill="none" xmlns="http://www.w3.org/2000/svg">
<path d="M15.0534 65L15.7577 60.5583H29.2044L33.5455 46.9444H43.0149L49.6577 26.1083H20.2737L22.046 14.4444H36.2109L36.4733 12.6389C37.0871 8.63296 38.8717 5.525 41.8272 3.315C44.7826 1.105 48.8122 0 53.9159 0C58.4119 0 62.084 1.33611 64.932 4.00833C67.78 6.68056 68.9877 9.78852 68.5549 13.3322L68.38 14.4444H88L80.1189 65H15.0534ZM0 51.9422L1.15087 48.3311H21.7744L20.6236 51.9422H0ZM9.20695 38.3319L10.3578 34.7208H35.5849L34.434 38.3319H9.20695ZM40.8144 14.4444H63.8041L63.9791 13.3322C64.2921 10.7443 63.399 8.47889 61.2999 6.53611C59.2037 4.58611 56.5353 3.61111 53.2944 3.61111C49.6638 3.61111 46.8265 4.39713 44.7826 5.96917C42.7386 7.5412 41.5034 9.76444 41.0768 12.6389L40.8144 14.4444Z" fill="#EEEEEE"/>
</svg>
